<?xml version="1.0" encoding="utf-8"?>
<!-- Generator: Adobe Illustrator 22.1.0, SVG Export Plug-In . SVG Version: 6.00 Build 0)  -->
<svg version="1.1" xmlns="http://www.w3.org/2000/svg" xmlns:xlink="http://www.w3.org/1999/xlink" x="0px" y="0px"
	 viewBox="0 0 750 500" style="enable-background:new 0 0 750 500;" xml:space="preserve">
<style type="text/css">
	.st0{fill:#DFDBF2;}
	.st1{fill:#FFFFFF;}
	.st2{fill:#7A91E1;}
	.st3{fill:none;stroke:#C2D5FD;stroke-linecap:round;stroke-linejoin:round;stroke-miterlimit:10;}
	.st4{fill:#C2D5FD;}
	.st5{fill:none;stroke:#FFFFFF;stroke-linecap:round;stroke-linejoin:round;stroke-miterlimit:10;}
	.st6{fill:#B69CFD;}
	.st7{fill:none;stroke:#5A62D1;stroke-linecap:round;stroke-linejoin:round;stroke-miterlimit:10;}
	.st8{fill:#B69CFF;}
	.st9{fill:none;stroke:#FFFFFF;stroke-width:2;stroke-miterlimit:10;}
	.st10{fill:#7274FD;}
	.st11{fill:#5B61D1;}
	.st12{fill:none;stroke:#7875FF;stroke-linecap:round;stroke-linejoin:round;stroke-miterlimit:10;}
	.st13{fill:#404BB2;}
	.st14{fill:#FF9FAA;}
	.st15{fill:#DD7892;}
	.st16{fill:#5A60D2;}
	.st17{fill:none;stroke:#404BB2;stroke-width:0.75;stroke-linecap:round;stroke-linejoin:round;stroke-miterlimit:10;}
	.st18{fill:none;stroke:#5A60D2;stroke-width:0.75;stroke-linecap:round;stroke-linejoin:round;stroke-miterlimit:10;}
	.st19{fill:#2F3F94;}
	.st20{fill:#F6828B;}
	.st21{fill:none;stroke:#BA5874;stroke-linecap:round;stroke-linejoin:round;stroke-miterlimit:10;}
	.st22{fill:#FFDB44;}
	.st23{fill:#7875FF;}
	.st24{fill:none;stroke:#FFB64A;stroke-linecap:round;stroke-linejoin:round;stroke-miterlimit:10;}
</style>
<g id="BACKGROUND">
	<g>
		<path class="st0" d="M119,372c0,0-14.1-29.6,6.2-68.3c20.4-39,33.9-55.1,30.3-100.1c-3.7-45.6-1.7-75.4,41.4-100.4
			c43-24.9,74.7-19.5,94.6-31.4c19.9-12,37.8-50.4,91.9-46.8c53.4,3.5,66.4,54.3,107.4,63.8c40.6,9.5,84.6,27.1,93.9,73.7
			c9.2,45.9-2.6,71.3,17.3,101.7c19.7,30,46,64.4,23.4,107.8H119z"/>
		<rect y="363.4" class="st1" width="750" height="136.6"/>
	</g>
</g>
<g id="OBJECTS">
	<g>
		<g>
			<g>
				<g>
					<path class="st2" d="M338.2,287.3c0,0-52.8-0.9-73.1-47.4c-20.2-46.5-1.3-81.4-1.5-92.8c0,0,52.9,16.8,71.5,57
						S338.2,287.3,338.2,287.3z"/>
					<g>
						<g>
							<path class="st3" d="M277.6,173c0,0,18.8,57.6,60.7,114.4"/>
							<path class="st3" d="M264.8,184.4c0,0,8.2,3.6,26.4,22.3"/>
							<path class="st3" d="M292.6,169.2c0,0-0.3,28.4,3.4,47.7"/>
							<path class="st3" d="M265.7,214.5c0,0,21.4,6.7,39.2,19.7"/>
							<path class="st3" d="M310.4,189.8c0,0-3.6,34.1-0.5,53.6"/>
							<path class="st3" d="M275.6,240.8c0,0,27,6.2,42,15.8"/>
							<path class="st3" d="M325.9,217.8c-3.5,17.7-3.4,39-0.3,51.4"/>
						</g>
					</g>
				</g>
				<g>
					<path class="st4" d="M124.4,321c5.5-0.8,29.6-36.5,74.5-23.4c0,0,42.5-28.2,85.2,17c0,0,38,1.6,34.5,55.3
						c0,0-14.2,41-55.9,33.6c0,0-30.9,12-53.6,4.3c-31.1-10.6-38.1-35-38.1-35S139.4,360.3,124.4,321z"/>
					<g>
						<path class="st5" d="M159,325.4c0,0,90.6,8.7,159.6,44.5"/>
						<path class="st5" d="M164.2,341.7c0,0,17.1-8.7,35.2-10.3"/>
						<path class="st5" d="M178,307.4c0,0,17,16.8,40.2,27.9"/>
						<path class="st5" d="M187.1,369.1c0,0,20.8-23.4,49.3-29.4"/>
						<path class="st5" d="M221,304c0,0,17.2,27.2,35.5,41.3"/>
						<path class="st5" d="M221.4,383.2c0,0,26-26.3,55-31.4"/>
						<path class="st5" d="M263.9,314.7c0,0,16.9,31.9,29,43.3"/>
						<path class="st5" d="M271.6,385.3c0,0,16.8-15.7,37.9-19.5"/>
					</g>
				</g>
				<g>
					<g>
						<g>
							<path class="st6" d="M239.2,247.5c0,0-20.2-20-28.9-38.5s-5.5-39,0-41c5.5-2,11.8,9.7,17,25.9
								C234.7,217.2,231.8,226.6,239.2,247.5z"/>
							<path class="st6" d="M279.9,285.2c0,0-20.3-20-29.1-38.4c-8.8-18.5-5.6-39-0.1-41c5.5-2,11.8,9.7,17,25.8
								C275.4,254.9,272.5,264.3,279.9,285.2z"/>
							<path class="st6" d="M321.1,328.8c0,0-20.3-20-29.1-38.4c-8.8-18.5-5.6-39-0.1-41c5.5-2,11.8,9.7,17,25.8
								C316.6,298.6,313.7,307.9,321.1,328.8z"/>
							<path class="st6" d="M219,230c0,0-18-16.3-34.2-23c-16.2-6.6-33.6-2.9-35,1.9c-1.5,4.8,8.9,9.6,22.9,13.3
								C192.9,227.6,200.8,224.7,219,230z"/>
							<path class="st6" d="M264.6,270.6c0,0-21-21.3-40.5-30.6c-19.5-9.3-41.1-5.9-43.2-0.2c-2.1,5.8,10.2,12.4,27.2,18
								C232.7,265.9,242.5,262.9,264.6,270.6z"/>
							<path class="st6" d="M305.2,311.2c0,0-20.8-21.6-40.2-31.1c-19.4-9.5-41-6.4-43.2-0.6s10.1,12.5,27,18.2
								C273.4,306.1,283.3,303.2,305.2,311.2z"/>
							<path class="st6" d="M333.5,345c0,0-18.7-21-36.5-30.6c-17.8-9.6-38.2-7.5-40.4-2.2c-2.3,5.3,9,12.1,24.6,18.1
								C303.9,339,313.2,336.7,333.5,345z"/>
						</g>
					</g>
					<path class="st7" d="M177,195.2c0,0,109.8,86,157.5,150.8"/>
				</g>
			</g>
			<g>
				<g>
					<path class="st2" d="M411.8,287.3c0,0,52.8-0.9,73.1-47.4c20.2-46.5,1.3-81.4,1.5-92.8c0,0-52.9,16.8-71.5,57
						S411.8,287.3,411.8,287.3z"/>
					<g>
						<g>
							<path class="st3" d="M472.4,173c0,0-18.8,57.6-60.7,114.4"/>
							<path class="st3" d="M485.2,184.4c0,0-8.2,3.6-26.4,22.3"/>
							<path class="st3" d="M457.4,169.2c0,0,0.3,28.4-3.4,47.7"/>
							<path class="st3" d="M484.3,214.5c0,0-21.4,6.7-39.2,19.7"/>
							<path class="st3" d="M439.6,189.8c0,0,3.6,34.1,0.5,53.6"/>
							<path class="st3" d="M474.4,240.8c0,0-27,6.2-42,15.8"/>
							<path class="st3" d="M424.1,217.8c3.5,17.7,3.4,39,0.3,51.4"/>
						</g>
					</g>
				</g>
				<g>
					<path class="st4" d="M625.6,321c-5.5-0.8-29.6-36.5-74.5-23.4c0,0-42.5-28.2-85.2,17c0,0-38,1.6-34.5,55.3
						c0,0,14.2,41,55.9,33.6c0,0,30.9,12,53.6,4.3c31.1-10.6,38.1-35,38.1-35S610.6,360.3,625.6,321z"/>
					<g>
						<path class="st5" d="M591,325.4c0,0-90.6,8.7-159.6,44.5"/>
						<path class="st5" d="M585.8,341.7c0,0-17.1-8.7-35.2-10.3"/>
						<path class="st5" d="M572,307.4c0,0-17,16.8-40.2,27.9"/>
						<path class="st5" d="M562.9,369.1c0,0-20.8-23.4-49.3-29.4"/>
						<path class="st5" d="M529,304c0,0-17.2,27.2-35.5,41.3"/>
						<path class="st5" d="M528.6,383.2c0,0-26-26.3-55-31.4"/>
						<path class="st5" d="M486.1,314.7c0,0-16.9,31.9-29,43.3"/>
						<path class="st5" d="M478.4,385.3c0,0-16.8-15.7-37.9-19.5"/>
					</g>
				</g>
				<g>
					<g>
						<g>
							<path class="st6" d="M510.8,247.5c0,0,20.2-20,28.9-38.5s5.5-39,0-41c-5.5-2-11.8,9.7-17,25.9
								C515.3,217.2,518.2,226.6,510.8,247.5z"/>
							<path class="st6" d="M470.1,285.2c0,0,20.3-20,29.1-38.4c8.8-18.5,5.6-39,0.1-41s-11.8,9.7-17,25.8
								C474.6,254.9,477.5,264.3,470.1,285.2z"/>
							<path class="st6" d="M428.9,328.8c0,0,20.3-20,29.1-38.4c8.8-18.5,5.6-39,0.1-41c-5.5-2-11.8,9.7-17,25.8
								C433.4,298.6,436.3,307.9,428.9,328.8z"/>
							<path class="st6" d="M531,230c0,0,18-16.3,34.2-23c16.2-6.6,33.6-2.9,35,1.9c1.5,4.8-8.9,9.6-22.9,13.3
								C557.1,227.6,549.2,224.7,531,230z"/>
							<path class="st6" d="M485.4,270.6c0,0,21-21.3,40.5-30.6c19.5-9.3,41.1-5.9,43.2-0.2c2.1,5.8-10.2,12.4-27.2,18
								C517.3,265.9,507.5,262.9,485.4,270.6z"/>
							<path class="st6" d="M444.8,311.2c0,0,20.8-21.6,40.2-31.1c19.4-9.5,41-6.4,43.2-0.6c2.2,5.8-10.1,12.5-27,18.2
								C476.6,306.1,466.7,303.2,444.8,311.2z"/>
							<path class="st6" d="M416.5,345c0,0,18.7-21,36.5-30.6c17.8-9.6,38.2-7.5,40.4-2.2c2.3,5.3-9,12.1-24.6,18.1
								C446.1,339,436.8,336.7,416.5,345z"/>
						</g>
					</g>
					<path class="st7" d="M573,195.2c0,0-109.7,86-157.5,150.8"/>
				</g>
			</g>
		</g>
		<g>
			<polygon class="st8" points="599.4,378.3 150.6,378.3 46.8,467.2 703.2,467.2 			"/>
			<line class="st9" x1="191.3" y1="378.3" x2="106.4" y2="467.2"/>
			<line class="st9" x1="558.7" y1="378.3" x2="643.6" y2="467.2"/>
			<rect x="46.8" y="467.2" class="st10" width="656.4" height="2.9"/>
		</g>
		<g>
			<g>
				<g>
					<path class="st11" d="M558.8,392.3c-1.8-5.8-23.6-14.8-57.7-20.4c-34.1-5.6-67.1-5.3-67.1-5.3l-56.9,10.6l-56.9-10.6
						c0,0-33-0.3-67.1,5.3s-55.9,14.6-57.7,20.4c-1.8,5.8-2.6,28.5,3.8,33.5c6.5,5,176.8,9.7,177.9,9.7v0c0,0,0,0,0,0l0,0v0
						c1.1,0,171.4-4.7,177.9-9.7C561.5,420.7,560.6,398.1,558.8,392.3z"/>
					<g>
						<path class="st12" d="M321,372.5c0,0,27.8,17.4,44.3,51.8"/>
					</g>
					<g>
						<path class="st12" d="M433.2,372.5c0,0-27.8,17.4-44.3,51.8"/>
					</g>
				</g>
			</g>
			<g>
				<path class="st13" d="M391.4,196.5c13.2-4.7,8.8-17.3,8.8-17.3c3.5,6.8,10.2,7.5,10.2,7.5c-4-9.3,6.7-20.2,10.3-26.5
					c3.7-6.3,3.3-25.2,1.4-36h-90c-1.9,10.8-2.2,29.7,1.4,36c3.7,6.3,14.3,17.2,10.3,26.5c0,0,6.7-0.7,10.2-7.5
					c0,0-4.3,12.7,8.8,17.3H391.4z"/>
				<g>
					<path class="st14" d="M377.1,246.2C377.1,246.2,377.1,246.2,377.1,246.2L377.1,246.2c23.6-14,32-32.5,32-32.5l-14.8-7.5
						c-2.5-10.9,0-20.7,0-20.7l-17.3,1l-17.3-1c0,0,2.5,9.8,0,20.7l-14.8,7.5C345.1,213.7,353.5,232.2,377.1,246.2L377.1,246.2z"/>
					<path class="st15" d="M393.5,190.9c0.3-3.3,0.9-5.5,0.9-5.5l-17.3,1l-17.3-1c0,0,0.5,2.1,0.9,5.5c3.6,3.3,9.6,7.8,16.4,7.8
						C383.8,198.7,389.9,194.3,393.5,190.9z"/>
				</g>
				<g>
					<path class="st14" d="M377.1,100.6L377.1,100.6C377.1,100.6,377.1,100.6,377.1,100.6C377.1,100.6,377.1,100.6,377.1,100.6
						L377.1,100.6c-30.2,0-41.5,27.4-39.4,47.5c2.6,25.1,13.7,40.4,39.4,40.4v0c0,0,0,0,0,0c0,0,0,0,0,0v0
						c25.7,0,36.9-15.3,39.4-40.4C418.6,128,407.3,100.6,377.1,100.6z"/>
					<g>
						<path class="st16" d="M399.1,100.6c0,0-4.8-17.3-13.8-17.6s-15.3,6.5-23.8,7.8c-8.5,1.3-19.3,2.3-30.7-5.5
							c0,0-1.5,11.3,4.4,16.5c0,0-7.5-0.2-10.8,6.8c-3.3,7-0.2,19-12.7,23.4c0,0,9.3,13.6,33.4,9.4c24.1-4.2,43.7-30.5,43.7-30.5
							s5.5,21.2,18.5,28.4c13,7.1,26.5-3,26.5-3s-7-3.8-9-9.2c-2-5.3-1.5-20.3-7.3-26.6C411.7,94.3,399.1,100.6,399.1,100.6z"/>
						<g>
							<g>
								<polyline class="st17" points="399.1,100.6 392.7,99.8 394.4,107.7 388.8,110.3 								"/>
								<path class="st17" d="M433.8,136.3c0,0-10.9,2.6-16.3-5.7c-5.5-8.4-5.9-25.3-23.1-22.9"/>
								<path class="st17" d="M402.4,99.3c0,0,10.7,1.3,10.8,21.7"/>
								<path class="st17" d="M392.7,99.8c0,0-14.3-11-31.2-3.5c-16.8,7.5-13.8,39.1-34.3,44.9"/>
								<path class="st17" d="M311.7,132.1c0,0,22.9,0.1,35.3-15.7"/>
							</g>
						</g>
						<g>
							<g>
								<path class="st18" d="M390,112.6c0,0,3.3,38,32,31.9"/>
								<path class="st18" d="M393.9,92.3c0,0-6.2-12.8-16.7-11.2c-10.5,1.7-16,12.5-43.7,2.7"/>
								<path class="st18" d="M335.7,99.3c0,0-18.8,0-15.6,27.1"/>
							</g>
						</g>
					</g>
					<g>
						<path class="st19" d="M355.1,143.2c2,1.1,4.5,2.6,6.7,2.7c0,0,0,0,0,0c2.4,0,4.3-1.2,6.1-2.7c-0.7,2.7-3.3,4.6-6.1,4.7
							C359.1,147.8,356.2,145.7,355.1,143.2z"/>
					</g>
					<ellipse class="st20" cx="352.9" cy="159.1" rx="12.5" ry="10.3"/>
					<g>
						<path class="st19" d="M399.1,143.2c-1.1,2.5-4,4.7-6.8,4.7c-2.7,0-5.4-1.9-6.1-4.7c1.8,1.5,3.8,2.7,6.1,2.7c0,0,0,0,0,0
							C394.6,145.8,397.1,144.3,399.1,143.2z"/>
					</g>
					<ellipse class="st20" cx="401.3" cy="159.1" rx="12.5" ry="10.3"/>
					<path class="st21" d="M377.1,132.1c0,0-3.3,6.7-2.1,16.7c0,0,7.6,0.7,8.1,2.2c0.4,1.3-4.3,8.4-6.6,10.5"/>
					<path class="st21" d="M364.2,166.7c0,0,11.5,9.6,24.6-1.4"/>
					<path class="st13" d="M351.7,133.2c0.1-4,4.1-7.1,7.6-8.1c3.8-1.1,8.3-0.4,11,2.7c0.1,0.1,0.6,0.8,0.1,0.8
						c-0.9-0.1-1.7-0.3-2.6-0.3c-2.1-0.1-4,0-6,0.3c-2.2,0.4-4.3,1.2-6.2,2.3c-0.9,0.5-1.7,1.1-2.5,1.7
						C352.7,132.9,352.1,133.8,351.7,133.2z"/>
					<path class="st13" d="M385.1,129.6c1.6-3.3,6.3-4.7,9.6-4c3.5,0.7,6.9,2.8,7.7,6.5c0.1,0.3,0.1,1-0.3,0.7
						c-0.7-0.5-1.5-0.9-2.2-1.3c-1.6-0.9-3.4-1.5-5.1-1.8c-1.8-0.3-3.6-0.5-5.4-0.3c-1,0.1-1.9,0.2-2.9,0.4
						C386,129.7,385.1,130.3,385.1,129.6z"/>
					<g>
						<g>
							<path class="st14" d="M342.4,167.7l-4.6-18.4c0,0-6-14.1-15.6-8.6C314,145.3,323.3,171.4,342.4,167.7z"/>
							<path class="st15" d="M322.1,157.3C322.1,157.3,322.1,157.3,322.1,157.3c3.7,6.7,10.8,12.3,20.3,10.4l-4.6-18.4
								C337.8,149.3,323.8,140.8,322.1,157.3z"/>
						</g>
					</g>
					<g>
						<g>
							<path class="st14" d="M411.8,167.7l4.6-18.4c0,0,6-14.1,15.6-8.6C440.2,145.3,430.9,171.4,411.8,167.7z"/>
							<path class="st15" d="M432.1,157.3C432.1,157.3,432.1,157.3,432.1,157.3c-3.7,6.7-10.8,12.3-20.3,10.4l4.6-18.4
								C416.4,149.3,430.4,140.8,432.1,157.3z"/>
						</g>
					</g>
				</g>
			</g>
			<g>
				<g>
					<path class="st14" d="M210.3,368.9c-1.2,1.2-5.8-2.3-7.8-2.6c-2-0.2-10.8,0.6-12.7,0.4c-1.9-0.2-4.5-1.7-6.6-1.3
						c-2.2,0.4-6.3,2.5-6.8,3.4c-0.5,1-0.4,2.7,1.6,2.8c2,0.1,4.7,0.7,6.1,0.6c1.4-0.2,3.9,0.2,5.1,1.2c1.2,1,2.1,4.8,1.9,6.4
						c-0.2,1.6-2,3.4-2.6,3.9c-0.6,0.4-4.2,0.6-5.6,1.7c0,0-3.3-0.1-3.4-0.9c-0.2-0.8-0.7-4.3-0.6-6.2c0.1-1.8,1.2-3.7,0.2-6
						c-0.8-1.6-2.9-3.7-3.8-2.4c-0.9,1.3-0.6,4.1-2.2,9.5c-1,3.3,0.7,9.8,1.6,10.5c0.9,0.8,7.2,1.5,7.2,1.5c0.5,0.1-6.3,4.6-8.5,5.3
						c-2.1,0.7-10.5,2-12.5,3.2c-2,1.2-4,4.3-3.5,5.1c0.5,0.8,6.9-1,11.2-1.3c4.3-0.3,7.4-1.9,8.2-2.1c0.7-0.2,3.7-1.6,3.8-1.4
						c0.1,0.2-3.8,4.7-4.6,5.2c-0.8,0.5-5.7,2.2-7.6,4c-1.9,1.7-2.8,5.6-2.1,6c0.7,0.4,5.6-3,8.1-3.5c2.5-0.6,5.4-1.9,6.2-2.6
						c0.8-0.6,5.9-5.9,6.4-6.2c0.4-0.3-2.6,3.1-3.4,5c-0.8,2-1,4.1-0.6,4.6c0.4,0.4,1.4,0.9,2,0.3c0.6-0.6,4.3-4.9,5.8-6.2
						c1.5-1.3,4.9-5.6,5.4-6.4c0.5-0.8,1.2-4.4,1.8-5.7c0.6-1.3,14-10.8,15.5-12c2.6-2.1,56.5-40.6,59-45.3
						c2.5-4.7-9-24.5-19.1-19.7C243,322.7,216.2,363.1,210.3,368.9z"/>
					<path class="st21" d="M186.9,403.2c1.2-1.6,2.3-3.3,2.7-4.3c0.4-1,1.2-2.6,1.2-2.6"/>
					<path class="st21" d="M180.6,400.2c1-1.7,3.7-4.1,4.2-4.6s0.8-3.1,0.6-3.1"/>
					<path class="st21" d="M208.7,374.8c0,0-4.9,1.4-7.3,5.2c-1.7,2.6-4.8,10.4-4.8,10.4"/>
				</g>
				<g>
					<path class="st14" d="M543.9,368.9c1.2,1.2,5.8-2.3,7.8-2.6c2-0.2,10.8,0.6,12.7,0.4c1.9-0.2,4.5-1.7,6.6-1.3
						c2.2,0.4,6.3,2.5,6.8,3.4c0.5,1,0.4,2.7-1.6,2.8c-2,0.1-4.7,0.7-6.1,0.6c-1.4-0.2-3.9,0.2-5.1,1.2c-1.2,1-2.1,4.8-1.9,6.4
						c0.2,1.6,2,3.4,2.6,3.9c0.6,0.4,4.2,0.6,5.6,1.7c0,0,3.3-0.1,3.4-0.9c0.2-0.8,0.7-4.3,0.6-6.2c-0.1-1.8-1.2-3.7-0.2-6
						c0.8-1.6,2.9-3.7,3.8-2.4c0.9,1.3,0.6,4.1,2.2,9.5c1,3.3-0.7,9.8-1.6,10.5c-0.9,0.8-7.2,1.5-7.2,1.5c-0.5,0.1,6.3,4.6,8.5,5.3
						c2.1,0.7,10.5,2,12.5,3.2c2,1.2,4,4.3,3.5,5.1c-0.5,0.8-6.9-1-11.2-1.3c-4.3-0.3-7.4-1.9-8.2-2.1c-0.7-0.2-3.7-1.6-3.8-1.4
						c-0.1,0.2,3.8,4.7,4.6,5.2c0.8,0.5,5.7,2.2,7.6,4c1.9,1.7,2.8,5.6,2.1,6c-0.7,0.4-5.6-3-8.1-3.5s-5.4-1.9-6.2-2.6
						c-0.8-0.6-5.9-5.9-6.4-6.2c-0.4-0.3,2.6,3.1,3.4,5c0.8,2,1,4.1,0.6,4.6c-0.4,0.4-1.4,0.9-2,0.3c-0.6-0.6-4.3-4.9-5.8-6.2
						c-1.5-1.3-4.9-5.6-5.4-6.4c-0.5-0.8-1.2-4.4-1.8-5.7c-0.6-1.3-14-10.8-15.5-12c-2.6-2.1-56.5-40.6-59-45.3
						c-2.5-4.7,9-24.5,19.1-19.7C511.2,322.7,538,363.1,543.9,368.9z"/>
					<path class="st21" d="M567.3,403.2c-1.2-1.6-2.3-3.3-2.7-4.3c-0.4-1-1.2-2.6-1.2-2.6"/>
					<path class="st21" d="M573.6,400.2c-1-1.7-3.7-4.1-4.2-4.6c-0.5-0.5-0.8-3.1-0.6-3.1"/>
					<path class="st21" d="M545.5,374.8c0,0,4.9,1.4,7.3,5.2c1.7,2.6,4.8,10.4,4.8,10.4"/>
				</g>
				<g>
					<g>
						<path class="st22" d="M510.9,317.1c-1-1.9-9-4.1-9.5-5.1s1-7.8,0-9.2s-8.5-4.8-10.8-7.2s-11.5-14.5-14.1-19.2
							c-2.6-4.8-20.4-39.5-25.6-44.5s-17.8-11-29-15.9c-11.2-4.9-24.8-10.3-24.8-10.3s-8.3,16.5-20.1,16.5
							c-11.8,0-20.1-16.5-20.1-16.5s-13.5,5.4-24.8,10.3c-11.2,4.9-23.7,10.9-29,15.9s-23,39.8-25.6,44.5
							c-2.6,4.8-11.9,16.8-14.1,19.2s-9.8,5.8-10.8,7.2s0.5,8.2,0,9.2s-8.5,3.2-9.5,5.1c-1,1.9-1.2,10.4,3.8,16.4s19.1,12,23.8,10.5
							s5-6.8,6.8-8.5c1.9-1.8,6.9-1.5,9.1-4s5.5-10.2,7.5-12.8s24.2-21,25-21.2c0.8-0.2,4.8,27.2,5.3,31.2s-2.3,7.2-2.4,9
							c-0.1,1.8,2.2,6,2.4,6.5s-3.3,3.5-3.5,5c-0.2,1.5,2,7.5,1.1,8.5c-0.8,1-8.1,1-9.6,3.2s-1.3,5.7-1.3,5.7s18.4,21.3,66.4,21.3
							s65.3-21.3,65.3-21.3s0.2-3.5-1.3-5.7s-8.8-2.2-9.6-3.2c-0.8-1,1.3-7,1.1-8.5c-0.2-1.5-3.8-4.5-3.5-5s2.5-4.7,2.4-6.5
							c-0.1-1.8-2.9-5-2.4-9s4.5-31.5,5.3-31.2c0.8,0.2,23,18.8,25,21.2s5.2,10.2,7.5,12.8s7.2,2.2,9.1,4c1.9,1.8,2.1,7,6.8,8.5
							s18.8-4.5,23.8-10.5S511.9,319,510.9,317.1z"/>
						<path class="st23" d="M263.5,295.5c-2.2,2.5-9.8,5.8-10.8,7.2s0.5,8.2,0,9.2s-8.5,3.2-9.5,5.1c-1,1.9-1.2,10.4,3.8,16.4
							s19.1,12,23.8,10.5s5-6.8,6.8-8.5c1.9-1.8,6.9-1.5,9.1-4s5.5-10.2,7.5-12.8s24.2-21,25-21.2c0,0-3.7-27.8-7.5-44.8
							s-8.5-21-8.5-21c-5.2,5-23,39.8-25.6,44.5C275,281,265.8,293,263.5,295.5z"/>
						<path class="st23" d="M490.7,295.5c2.2,2.5,9.8,5.8,10.8,7.2s-0.5,8.2,0,9.2s8.5,3.2,9.5,5.1c1,1.9,1.2,10.4-3.8,16.4
							s-19.1,12-23.8,10.5s-5-6.8-6.8-8.5c-1.9-1.8-6.9-1.5-9.1-4s-5.5-10.2-7.5-12.8s-24.2-21-25-21.2c0,0,3.7-27.8,7.5-44.8
							s8.5-21,8.5-21c5.2,5,23,39.8,25.6,44.5C479.2,281,488.4,293,490.7,295.5z"/>
						<g>
							<path class="st1" d="M377.1,286.5c-25.1,0-49.5-2.5-60-3.7c1.3,8.4,2.1,14.7,2.1,14.7c0.3-0.1,1.3,4.9,2.3,10.9
								c12.9,1.3,33.8,3.1,55.6,3.1c21.8,0,42.7-1.7,55.6-3.1c1-6.1,1.9-11,2.3-10.9c0,0,0.8-6.3,2.1-14.7
								C426.5,284,402.2,286.5,377.1,286.5z"/>
						</g>
						<path class="st1" d="M440.6,261.9c-8.6,1.1-35.5,4.1-63.5,4.1c-28,0-54.9-3-63.5-4.1c0.8,4.4,1.6,9,2.3,13.4
							c11.5,1.3,35.6,3.7,61.2,3.7c25.6,0,49.7-2.4,61.2-3.7C439,270.9,439.8,266.3,440.6,261.9z"/>
						<path class="st23" d="M403.4,208c-3.7-1.5-6.2-2.5-6.2-2.5s-8.3,16.5-20.1,16.5c-11.8,0-20.1-16.5-20.1-16.5s-2.5,1-6.2,2.5
							c2.6,7.5,12.1,21,26.3,21S400.8,215.6,403.4,208z"/>
					</g>
					<g>
						<g>
							<path class="st7" d="M255.7,306.2c0,0,2.8,14.8,20.3,25.5"/>
							<path class="st7" d="M263.5,313.5c0,0,12,1.2,25.3,5.5"/>
							<path class="st7" d="M246.5,319c0,0,8.8,9.2,27.8,16"/>
						</g>
					</g>
					<g>
						<g>
							<path class="st7" d="M498.5,306.2c0,0-2.8,14.8-20.3,25.5"/>
							<path class="st7" d="M490.7,313.5c0,0-12,1.2-25.3,5.5"/>
							<path class="st7" d="M507.7,319c0,0-8.8,9.2-27.8,16"/>
						</g>
					</g>
					<g>
						<g>
							<g>
								<path class="st24" d="M347.2,296.8c0,0,26.7-11.8,56.9-15.5"/>
								<path class="st24" d="M377.5,289c0,0,18-1,32.2,6"/>
							</g>
						</g>
						<g>
							<g>
								<path class="st24" d="M324.8,358c0,0,45,26.7,98,16.8"/>
								<path class="st24" d="M428,346c0,0-22.8,20.5-62.8,24c0,0,41,0.7,50-3.4c9-4.1,12.8-15.6,12.8-15.6"/>
								<path class="st24" d="M332.2,339.8c0,0,20,15.3,46.5,23.8"/>
							</g>
						</g>
					</g>
				</g>
			</g>
			<g>
				<path class="st10" d="M465.3,403.9c3-10,9.5-24.6,13.6-26.2c4.1-1.6,9.8,3,11.5,3.3c1.6,0.3,3.1-2.9,6-3c3-0.1,5.4,4.2,6.6,4.1
					c1.2-0.1,44.4-0.9,51,5.5c6.7,6.4,9.9,28.6,0.5,38.6c-9.4,9.9-46.3,8.9-53.6,8.7c-7.3-0.2-12.4,0.9-15-0.3
					c-6.4-3-8.7,0.4-12.1-0.2c-5.2-1-8.9,0.6-13.3-1.1C456.1,431.5,465.3,403.9,465.3,403.9z"/>
				<g>
					<path class="st15" d="M305.4,407.9c3.3-0.6,11.3-4.1,20.7-4.2c9.5-0.1,17-2.4,21-6.8c3.9-4.4,12.7-13.7,20.7-10.4
						s9.1,18.2,16.7,19.1c6.4,0.8,75.2-13.1,96.2-17.4c-1.6,9.2-5.8,28.2-15.3,41.7c-28.1-2.7-80.7-6.5-92.1-7.3
						c-14.1-0.9-70.6-7.7-74.3-8.6C295.2,413.2,302.1,408.5,305.4,407.9z"/>
					<path class="st7" d="M481.5,382.7c0,0-3.6,32.5-18.7,50.7"/>
				</g>
				<g>
					<g>
						<path class="st7" d="M490.1,384.5c0,0,4.1,11,3.9,25.4c-0.2,14.4-4.9,21.4-6.5,20.9c-1.5-0.5,2.4-23.6,2.7-36.7"/>
						<path class="st7" d="M487.4,400.8c0,0-4.5,19.4-11.8,30.5"/>
					</g>
				</g>
			</g>
			<g>
				<path class="st10" d="M284.9,412.9c-2.2-10.2-7.5-25.3-11.4-27.3c-3.9-2-10,2.2-11.7,2.4c-1.6,0.2-2.8-3.1-5.8-3.5
					c-2.9-0.4-5.7,3.7-6.9,3.5c-1.2-0.2-44.1-4.6-51.3,1.2c-7.2,5.8-12.3,27.7-3.8,38.4c8.5,10.7,45.4,12.8,52.7,13.1
					c7.3,0.4,12.3,2,15,1c6.6-2.4,8.7,1.2,12.1,0.8c5.3-0.6,8.8,1.4,13.3,0C291.7,441.1,284.9,412.9,284.9,412.9z"/>
				<g>
					<path class="st14" d="M443.8,430.2c-3.2-0.9-10.9-5-20.3-5.9c-9.4-0.9-16.8-3.8-20.3-8.5c-3.5-4.7-11.5-14.7-19.7-12.1
						c-8.2,2.6-10.6,17.4-18.3,17.7c-6.5,0.2-73.8-19.3-94.4-25.3c0.8,9.3,3.5,28.6,11.7,42.9c28.2-0.4,80.9,0.2,92.4,0.4
						c14.1,0.3,70.9-1.8,74.8-2.4C453.6,436.3,447.1,431,443.8,430.2z"/>
					<path class="st7" d="M270.4,390.4c0,0,0.9,32.7,14.4,52.1"/>
				</g>
				<g>
					<g>
						<path class="st7" d="M261.8,391.5c0,0-5,10.6-6,25c-1,14.4,3.1,21.7,4.7,21.3c1.6-0.4-0.5-23.7,0.4-36.8"/>
						<path class="st7" d="M263.1,408c0,0,2.9,19.7,9.2,31.3"/>
					</g>
				</g>
			</g>
		</g>
		<g>
			<path class="st1" d="M234,135.4c0,0-0.8,9.5-9.2,14.5c8.5,5,9.2,14.5,9.2,14.5s0.8-9.5,9.2-14.5C234.7,144.9,234,135.4,234,135.4
				z"/>
			<path class="st1" d="M469.2,114.1c0,0-0.8,9.5-9.2,14.5c8.5,5,9.2,14.5,9.2,14.5s0.8-9.5,9.2-14.5
				C470,123.5,469.2,114.1,469.2,114.1z"/>
			<path class="st1" d="M202.6,285.2c0,0-0.8,9.5-9.2,14.5c8.5,5,9.2,14.5,9.2,14.5s0.8-9.5,9.2-14.5
				C203.4,294.7,202.6,285.2,202.6,285.2z"/>
			<path class="st1" d="M519.1,250.6c0,0-0.8,9.5-9.2,14.5c8.5,5,9.2,14.5,9.2,14.5s0.8-9.5,9.2-14.5
				C519.8,260,519.1,250.6,519.1,250.6z"/>
			<path class="st1" d="M244.5,121.7c0,0-0.4,4.9-4.8,7.5c4.4,2.6,4.8,7.5,4.8,7.5s0.4-4.9,4.8-7.5
				C244.9,126.6,244.5,121.7,244.5,121.7z"/>
			<path class="st1" d="M184.3,163.1c0,0-0.4,4.9-4.8,7.5c4.4,2.6,4.8,7.5,4.8,7.5s0.4-4.9,4.8-7.5
				C184.7,168,184.3,163.1,184.3,163.1z"/>
			<path class="st1" d="M305.2,113.5c0,0-0.4,4.9-4.8,7.5c4.4,2.6,4.8,7.5,4.8,7.5s0.4-4.9,4.8-7.5
				C305.6,118.4,305.2,113.5,305.2,113.5z"/>
			<path class="st1" d="M460,101.2c0,0-0.4,4.9-4.8,7.5c4.4,2.6,4.8,7.5,4.8,7.5s0.4-4.9,4.8-7.5C460.4,106.1,460,101.2,460,101.2z"
				/>
			<path class="st1" d="M423.4,76c0,0-0.4,4.9-4.8,7.5c4.4,2.6,4.8,7.5,4.8,7.5s0.4-4.9,4.8-7.5C423.8,80.9,423.4,76,423.4,76z"/>
			<path class="st1" d="M529.6,240.4c0,0-0.4,4.9-4.8,7.5c4.4,2.6,4.8,7.5,4.8,7.5s0.4-4.9,4.8-7.5
				C530,245.3,529.6,240.4,529.6,240.4z"/>
			<path class="st1" d="M560.1,152.8c0,0-0.4,4.9-4.8,7.5c4.4,2.6,4.8,7.5,4.8,7.5s0.4-4.9,4.8-7.5
				C560.5,157.7,560.1,152.8,560.1,152.8z"/>
			<path class="st1" d="M573.6,266.6c0,0-0.4,4.9-4.8,7.5c4.4,2.6,4.8,7.5,4.8,7.5s0.4-4.9,4.8-7.5
				C574,271.5,573.6,266.6,573.6,266.6z"/>
			<path class="st1" d="M183,266.6c0,0-0.4,4.9-4.8,7.5c4.4,2.6,4.8,7.5,4.8,7.5s0.4-4.9,4.8-7.5C183.4,271.5,183,266.6,183,266.6z"
				/>
		</g>
	</g>
</g>
</svg>
